<mxfile host="app.diagrams.net" modified="2023-03-28T10:09:00.978Z" agent="Mozilla/5.0 (X11; Linux x86_64) AppleWebKit/537.36 (KHTML, like Gecko) Chrome/110.0.0.0 Safari/537.36" version="21.1.1" etag="zqhwxoCE4ZJ_VTyewLm-" type="device">
  <diagram id="yc4GCuQtWjAl4LaGtryO" name="Page-1">
    <mxGraphModel dx="1434" dy="802" grid="1" gridSize="10" guides="1" tooltips="1" connect="1" arrows="1" fold="1" page="1" pageScale="1" pageWidth="827" pageHeight="1169" math="0" shadow="0">
      <root>
        <mxCell id="0" />
        <mxCell id="1" parent="0" />
        <mxCell id="_MuIBgbVTPE8MTDFf6LB-1" value="" style="ellipse;html=1;shape=startState;fillColor=#000000;strokeColor=#ff0000;" vertex="1" parent="1">
          <mxGeometry x="425" y="23" width="30" height="30" as="geometry" />
        </mxCell>
        <mxCell id="_MuIBgbVTPE8MTDFf6LB-2" value="" style="edgeStyle=orthogonalEdgeStyle;html=1;verticalAlign=bottom;endArrow=open;endSize=8;strokeColor=#ff0000;rounded=0;" edge="1" source="_MuIBgbVTPE8MTDFf6LB-1" parent="1">
          <mxGeometry relative="1" as="geometry">
            <mxPoint x="440" y="90" as="targetPoint" />
          </mxGeometry>
        </mxCell>
        <mxCell id="_MuIBgbVTPE8MTDFf6LB-3" value="Identification Personnel / Bénévole" style="rounded=1;whiteSpace=wrap;html=1;" vertex="1" parent="1">
          <mxGeometry x="360" y="90" width="160" height="60" as="geometry" />
        </mxCell>
        <mxCell id="_MuIBgbVTPE8MTDFf6LB-5" value="Identification OK ?" style="rhombus;whiteSpace=wrap;html=1;fontColor=#000000;fillColor=#ffffc0;strokeColor=#ff0000;" vertex="1" parent="1">
          <mxGeometry x="400" y="188" width="80" height="40" as="geometry" />
        </mxCell>
        <mxCell id="_MuIBgbVTPE8MTDFf6LB-6" value="no" style="edgeStyle=orthogonalEdgeStyle;html=1;align=left;verticalAlign=bottom;endArrow=open;endSize=8;strokeColor=#ff0000;rounded=0;entryX=1;entryY=0.5;entryDx=0;entryDy=0;" edge="1" source="_MuIBgbVTPE8MTDFf6LB-5" parent="1">
          <mxGeometry x="-1" relative="1" as="geometry">
            <mxPoint x="519" y="119" as="targetPoint" />
            <Array as="points">
              <mxPoint x="599" y="208" />
              <mxPoint x="599" y="119" />
            </Array>
          </mxGeometry>
        </mxCell>
        <mxCell id="_MuIBgbVTPE8MTDFf6LB-14" value="" style="edgeStyle=orthogonalEdgeStyle;html=1;verticalAlign=bottom;endArrow=open;endSize=8;strokeColor=#ff0000;rounded=0;" edge="1" parent="1">
          <mxGeometry relative="1" as="geometry">
            <mxPoint x="439.5" y="187" as="targetPoint" />
            <mxPoint x="439.5" y="150" as="sourcePoint" />
          </mxGeometry>
        </mxCell>
        <mxCell id="_MuIBgbVTPE8MTDFf6LB-16" value="Nouvel emprunt" style="rounded=1;whiteSpace=wrap;html=1;" vertex="1" parent="1">
          <mxGeometry x="360" y="509" width="160" height="60" as="geometry" />
        </mxCell>
        <mxCell id="_MuIBgbVTPE8MTDFf6LB-21" value="Carte de lecteur ?" style="rhombus;whiteSpace=wrap;html=1;fontColor=#000000;fillColor=#ffffc0;strokeColor=#ff0000;" vertex="1" parent="1">
          <mxGeometry x="400" y="274" width="80" height="40" as="geometry" />
        </mxCell>
        <mxCell id="_MuIBgbVTPE8MTDFf6LB-26" value="Emprunt impossible" style="rounded=1;whiteSpace=wrap;html=1;" vertex="1" parent="1">
          <mxGeometry x="620" y="425" width="160" height="60" as="geometry" />
        </mxCell>
        <mxCell id="_MuIBgbVTPE8MTDFf6LB-27" value="Création d&#39;une carte de lecteur" style="rounded=1;whiteSpace=wrap;html=1;" vertex="1" parent="1">
          <mxGeometry x="620" y="264" width="160" height="60" as="geometry" />
        </mxCell>
        <mxCell id="_MuIBgbVTPE8MTDFf6LB-29" value="" style="edgeStyle=orthogonalEdgeStyle;html=1;align=left;verticalAlign=top;endArrow=open;endSize=8;strokeColor=#ff0000;rounded=0;exitX=1;exitY=0.5;exitDx=0;exitDy=0;entryX=1;entryY=0.5;entryDx=0;entryDy=0;" edge="1" parent="1" source="_MuIBgbVTPE8MTDFf6LB-27" target="_MuIBgbVTPE8MTDFf6LB-16">
          <mxGeometry x="-1" relative="1" as="geometry">
            <mxPoint x="680" y="629" as="targetPoint" />
            <mxPoint x="640" y="499" as="sourcePoint" />
            <Array as="points">
              <mxPoint x="800" y="294" />
              <mxPoint x="800" y="539" />
            </Array>
          </mxGeometry>
        </mxCell>
        <mxCell id="_MuIBgbVTPE8MTDFf6LB-33" value="Enregistrement de l&#39;emprunt (N° lecteur + Côte document)" style="rounded=1;whiteSpace=wrap;html=1;" vertex="1" parent="1">
          <mxGeometry x="360" y="939" width="160" height="60" as="geometry" />
        </mxCell>
        <mxCell id="_MuIBgbVTPE8MTDFf6LB-36" value="" style="edgeStyle=orthogonalEdgeStyle;html=1;align=left;verticalAlign=top;endArrow=open;endSize=8;strokeColor=#ff0000;rounded=0;entryX=0.5;entryY=0;entryDx=0;entryDy=0;" edge="1" parent="1" target="_MuIBgbVTPE8MTDFf6LB-33">
          <mxGeometry x="-1" relative="1" as="geometry">
            <mxPoint x="440" y="1039" as="targetPoint" />
            <mxPoint x="440" y="920" as="sourcePoint" />
          </mxGeometry>
        </mxCell>
        <mxCell id="_MuIBgbVTPE8MTDFf6LB-37" value="Emprunt impossible" style="rounded=1;whiteSpace=wrap;html=1;" vertex="1" parent="1">
          <mxGeometry x="611" y="1050" width="160" height="60" as="geometry" />
        </mxCell>
        <mxCell id="_MuIBgbVTPE8MTDFf6LB-38" value="" style="edgeStyle=orthogonalEdgeStyle;html=1;align=left;verticalAlign=top;endArrow=none;endSize=8;strokeColor=#ff0000;rounded=0;endFill=0;exitX=0.5;exitY=1;exitDx=0;exitDy=0;" edge="1" parent="1" source="_MuIBgbVTPE8MTDFf6LB-85">
          <mxGeometry x="-1" relative="1" as="geometry">
            <mxPoint x="440" y="920" as="targetPoint" />
            <mxPoint x="440" y="704" as="sourcePoint" />
            <Array as="points">
              <mxPoint x="440" y="680" />
            </Array>
          </mxGeometry>
        </mxCell>
        <mxCell id="_MuIBgbVTPE8MTDFf6LB-44" value="" style="edgeStyle=orthogonalEdgeStyle;html=1;verticalAlign=bottom;endArrow=open;endSize=8;strokeColor=#ff0000;rounded=0;entryX=0.5;entryY=0;entryDx=0;entryDy=0;" edge="1" parent="1">
          <mxGeometry relative="1" as="geometry">
            <mxPoint x="440" y="644" as="targetPoint" />
            <mxPoint x="440" y="569" as="sourcePoint" />
            <Array as="points">
              <mxPoint x="440" y="619" />
              <mxPoint x="440" y="619" />
            </Array>
          </mxGeometry>
        </mxCell>
        <mxCell id="_MuIBgbVTPE8MTDFf6LB-51" value="Ecran dispo ?" style="rhombus;whiteSpace=wrap;html=1;fontColor=#000000;fillColor=#ffffc0;strokeColor=#ff0000;" vertex="1" parent="1">
          <mxGeometry x="651" y="837" width="80" height="40" as="geometry" />
        </mxCell>
        <mxCell id="_MuIBgbVTPE8MTDFf6LB-53" value="no" style="edgeStyle=orthogonalEdgeStyle;html=1;align=left;verticalAlign=top;endArrow=open;endSize=8;strokeColor=#FF0000;rounded=0;endFill=0;entryX=0.5;entryY=0;entryDx=0;entryDy=0;" edge="1" parent="1" source="_MuIBgbVTPE8MTDFf6LB-51" target="_MuIBgbVTPE8MTDFf6LB-37">
          <mxGeometry x="-1" relative="1" as="geometry">
            <mxPoint x="694" y="899" as="targetPoint" />
          </mxGeometry>
        </mxCell>
        <mxCell id="_MuIBgbVTPE8MTDFf6LB-56" value="Yes" style="edgeStyle=orthogonalEdgeStyle;html=1;align=left;verticalAlign=bottom;endArrow=open;endSize=8;strokeColor=#ff0000;rounded=0;exitX=0;exitY=0.5;exitDx=0;exitDy=0;endFill=0;entryX=1;entryY=0.5;entryDx=0;entryDy=0;" edge="1" parent="1" source="_MuIBgbVTPE8MTDFf6LB-51" target="_MuIBgbVTPE8MTDFf6LB-33">
          <mxGeometry x="-0.806" relative="1" as="geometry">
            <mxPoint x="600" y="1110" as="targetPoint" />
            <mxPoint x="440" y="857" as="sourcePoint" />
            <Array as="points">
              <mxPoint x="570" y="857" />
              <mxPoint x="570" y="969" />
            </Array>
            <mxPoint as="offset" />
          </mxGeometry>
        </mxCell>
        <mxCell id="_MuIBgbVTPE8MTDFf6LB-60" value="Caution acceptée ?" style="rhombus;whiteSpace=wrap;html=1;fontColor=#000000;fillColor=#ffffc0;strokeColor=#ff0000;" vertex="1" parent="1">
          <mxGeometry x="150" y="779" width="80" height="40" as="geometry" />
        </mxCell>
        <mxCell id="_MuIBgbVTPE8MTDFf6LB-61" value="no" style="edgeStyle=orthogonalEdgeStyle;html=1;align=left;verticalAlign=top;endArrow=open;endSize=8;strokeColor=#FF0000;rounded=0;endFill=0;entryX=0;entryY=0.5;entryDx=0;entryDy=0;" edge="1" parent="1" source="_MuIBgbVTPE8MTDFf6LB-60" target="_MuIBgbVTPE8MTDFf6LB-37">
          <mxGeometry x="-1" relative="1" as="geometry">
            <mxPoint x="190" y="1100" as="targetPoint" />
            <Array as="points">
              <mxPoint x="190" y="1080" />
            </Array>
          </mxGeometry>
        </mxCell>
        <mxCell id="_MuIBgbVTPE8MTDFf6LB-63" value="Yes" style="edgeStyle=orthogonalEdgeStyle;html=1;align=left;verticalAlign=bottom;endArrow=open;endSize=8;strokeColor=#ff0000;rounded=0;exitX=1;exitY=0.5;exitDx=0;exitDy=0;endFill=0;entryX=0;entryY=0.5;entryDx=0;entryDy=0;" edge="1" parent="1" source="_MuIBgbVTPE8MTDFf6LB-60" target="_MuIBgbVTPE8MTDFf6LB-64">
          <mxGeometry x="-0.806" relative="1" as="geometry">
            <mxPoint x="440" y="799" as="targetPoint" />
            <mxPoint x="664" y="809" as="sourcePoint" />
            <Array as="points" />
            <mxPoint as="offset" />
          </mxGeometry>
        </mxCell>
        <mxCell id="_MuIBgbVTPE8MTDFf6LB-64" value="Enregistrement caution" style="rounded=1;whiteSpace=wrap;html=1;" vertex="1" parent="1">
          <mxGeometry x="279" y="769" width="120" height="60" as="geometry" />
        </mxCell>
        <mxCell id="_MuIBgbVTPE8MTDFf6LB-65" value="" style="edgeStyle=orthogonalEdgeStyle;html=1;align=left;verticalAlign=bottom;endArrow=open;endSize=8;strokeColor=#ff0000;rounded=0;endFill=0;exitX=0.5;exitY=1;exitDx=0;exitDy=0;entryX=0;entryY=0.5;entryDx=0;entryDy=0;" edge="1" parent="1" source="_MuIBgbVTPE8MTDFf6LB-64" target="_MuIBgbVTPE8MTDFf6LB-33">
          <mxGeometry x="-0.806" relative="1" as="geometry">
            <mxPoint x="440" y="799" as="targetPoint" />
            <mxPoint x="400" y="799" as="sourcePoint" />
            <Array as="points" />
            <mxPoint as="offset" />
          </mxGeometry>
        </mxCell>
        <mxCell id="_MuIBgbVTPE8MTDFf6LB-67" value="Article disponible ?" style="rhombus;whiteSpace=wrap;html=1;fontColor=#000000;fillColor=#ffffc0;strokeColor=#ff0000;" vertex="1" parent="1">
          <mxGeometry x="400" y="435" width="80" height="40" as="geometry" />
        </mxCell>
        <mxCell id="_MuIBgbVTPE8MTDFf6LB-74" value="Moins de 5 emprunts ?" style="rhombus;whiteSpace=wrap;html=1;fontColor=#000000;fillColor=#ffffc0;strokeColor=#ff0000;" vertex="1" parent="1">
          <mxGeometry x="400" y="356" width="80" height="40" as="geometry" />
        </mxCell>
        <mxCell id="_MuIBgbVTPE8MTDFf6LB-75" value="no" style="edgeStyle=orthogonalEdgeStyle;html=1;align=left;verticalAlign=bottom;endArrow=open;endSize=8;strokeColor=#ff0000;rounded=0;exitX=1;exitY=0.5;exitDx=0;exitDy=0;endFill=0;entryX=0;entryY=0.5;entryDx=0;entryDy=0;" edge="1" parent="1" source="_MuIBgbVTPE8MTDFf6LB-67" target="_MuIBgbVTPE8MTDFf6LB-26">
          <mxGeometry x="-0.8571" y="5" relative="1" as="geometry">
            <mxPoint x="549" y="454.5" as="targetPoint" />
            <mxPoint x="500" y="454.5" as="sourcePoint" />
            <Array as="points" />
            <mxPoint as="offset" />
          </mxGeometry>
        </mxCell>
        <mxCell id="_MuIBgbVTPE8MTDFf6LB-76" value="yes" style="edgeStyle=orthogonalEdgeStyle;html=1;align=left;verticalAlign=bottom;endArrow=open;endSize=8;strokeColor=#ff0000;rounded=0;exitX=0.5;exitY=1;exitDx=0;exitDy=0;endFill=0;entryX=0.5;entryY=0;entryDx=0;entryDy=0;" edge="1" parent="1" source="_MuIBgbVTPE8MTDFf6LB-67" target="_MuIBgbVTPE8MTDFf6LB-16">
          <mxGeometry x="-0.1176" y="-20" relative="1" as="geometry">
            <mxPoint x="630" y="465" as="targetPoint" />
            <mxPoint x="490" y="465" as="sourcePoint" />
            <Array as="points" />
            <mxPoint as="offset" />
          </mxGeometry>
        </mxCell>
        <mxCell id="_MuIBgbVTPE8MTDFf6LB-77" value="no" style="edgeStyle=orthogonalEdgeStyle;html=1;align=left;verticalAlign=bottom;endArrow=open;endSize=8;strokeColor=#ff0000;rounded=0;exitX=1;exitY=0.5;exitDx=0;exitDy=0;endFill=0;entryX=0.25;entryY=0;entryDx=0;entryDy=0;" edge="1" parent="1" source="_MuIBgbVTPE8MTDFf6LB-74" target="_MuIBgbVTPE8MTDFf6LB-26">
          <mxGeometry x="-0.8571" y="5" relative="1" as="geometry">
            <mxPoint x="640" y="420" as="targetPoint" />
            <mxPoint x="511" y="375.5" as="sourcePoint" />
            <Array as="points" />
            <mxPoint as="offset" />
          </mxGeometry>
        </mxCell>
        <mxCell id="_MuIBgbVTPE8MTDFf6LB-78" value="yes" style="edgeStyle=orthogonalEdgeStyle;html=1;align=left;verticalAlign=bottom;endArrow=open;endSize=8;strokeColor=#ff0000;rounded=0;exitX=0.5;exitY=1;exitDx=0;exitDy=0;endFill=0;entryX=0.5;entryY=0;entryDx=0;entryDy=0;" edge="1" parent="1" source="_MuIBgbVTPE8MTDFf6LB-74" target="_MuIBgbVTPE8MTDFf6LB-67">
          <mxGeometry x="-0.1176" y="-20" relative="1" as="geometry">
            <mxPoint x="440" y="420" as="targetPoint" />
            <mxPoint x="450" y="485" as="sourcePoint" />
            <Array as="points" />
            <mxPoint as="offset" />
          </mxGeometry>
        </mxCell>
        <mxCell id="_MuIBgbVTPE8MTDFf6LB-80" value="yes" style="edgeStyle=orthogonalEdgeStyle;html=1;align=left;verticalAlign=bottom;endArrow=open;endSize=8;strokeColor=#ff0000;rounded=0;exitX=0.5;exitY=1;exitDx=0;exitDy=0;endFill=0;entryX=0.5;entryY=0;entryDx=0;entryDy=0;" edge="1" parent="1" source="_MuIBgbVTPE8MTDFf6LB-21" target="_MuIBgbVTPE8MTDFf6LB-74">
          <mxGeometry x="-0.1176" y="-20" relative="1" as="geometry">
            <mxPoint x="439" y="340" as="targetPoint" />
            <mxPoint x="450" y="406" as="sourcePoint" />
            <Array as="points" />
            <mxPoint as="offset" />
          </mxGeometry>
        </mxCell>
        <mxCell id="_MuIBgbVTPE8MTDFf6LB-82" value="no" style="edgeStyle=orthogonalEdgeStyle;html=1;align=left;verticalAlign=bottom;endArrow=open;endSize=8;strokeColor=#ff0000;rounded=0;exitX=1;exitY=0.5;exitDx=0;exitDy=0;endFill=0;" edge="1" parent="1" source="_MuIBgbVTPE8MTDFf6LB-21" target="_MuIBgbVTPE8MTDFf6LB-26">
          <mxGeometry x="-1" y="11" relative="1" as="geometry">
            <mxPoint x="560" y="370" as="targetPoint" />
            <mxPoint x="510" y="300" as="sourcePoint" />
            <Array as="points">
              <mxPoint x="480" y="340" />
              <mxPoint x="700" y="340" />
            </Array>
            <mxPoint x="-1" y="-4" as="offset" />
          </mxGeometry>
        </mxCell>
        <mxCell id="_MuIBgbVTPE8MTDFf6LB-83" value="" style="edgeStyle=orthogonalEdgeStyle;html=1;align=left;verticalAlign=bottom;endArrow=open;endSize=8;strokeColor=#ff0000;rounded=0;endFill=0;entryX=0;entryY=0.5;entryDx=0;entryDy=0;" edge="1" parent="1" target="_MuIBgbVTPE8MTDFf6LB-27">
          <mxGeometry x="-0.1176" y="-20" relative="1" as="geometry">
            <mxPoint x="450" y="366" as="targetPoint" />
            <mxPoint x="480" y="294" as="sourcePoint" />
            <Array as="points">
              <mxPoint x="560" y="294" />
            </Array>
            <mxPoint as="offset" />
          </mxGeometry>
        </mxCell>
        <mxCell id="_MuIBgbVTPE8MTDFf6LB-84" value="yes" style="edgeStyle=orthogonalEdgeStyle;html=1;align=left;verticalAlign=bottom;endArrow=open;endSize=8;strokeColor=#ff0000;rounded=0;exitX=0.5;exitY=1;exitDx=0;exitDy=0;endFill=0;entryX=0.5;entryY=0;entryDx=0;entryDy=0;" edge="1" parent="1" source="_MuIBgbVTPE8MTDFf6LB-5" target="_MuIBgbVTPE8MTDFf6LB-21">
          <mxGeometry x="-0.1176" y="-20" relative="1" as="geometry">
            <mxPoint x="439" y="260" as="targetPoint" />
            <mxPoint x="450" y="324" as="sourcePoint" />
            <Array as="points" />
            <mxPoint as="offset" />
          </mxGeometry>
        </mxCell>
        <mxCell id="_MuIBgbVTPE8MTDFf6LB-85" value="Type de document ?" style="rhombus;whiteSpace=wrap;html=1;fontColor=#000000;fillColor=#ffffc0;strokeColor=#ff0000;" vertex="1" parent="1">
          <mxGeometry x="399" y="640" width="80" height="40" as="geometry" />
        </mxCell>
        <mxCell id="_MuIBgbVTPE8MTDFf6LB-86" value="Microfilm" style="edgeStyle=orthogonalEdgeStyle;html=1;align=left;verticalAlign=bottom;endArrow=open;endSize=8;strokeColor=#ff0000;rounded=0;entryX=0.5;entryY=0;entryDx=0;entryDy=0;" edge="1" source="_MuIBgbVTPE8MTDFf6LB-85" parent="1" target="_MuIBgbVTPE8MTDFf6LB-51">
          <mxGeometry x="-1" y="13" relative="1" as="geometry">
            <mxPoint x="579" y="660" as="targetPoint" />
            <Array as="points">
              <mxPoint x="691" y="660" />
            </Array>
            <mxPoint x="-9" y="3" as="offset" />
          </mxGeometry>
        </mxCell>
        <mxCell id="_MuIBgbVTPE8MTDFf6LB-88" value="CR-ROM" style="edgeStyle=orthogonalEdgeStyle;html=1;align=left;verticalAlign=bottom;endArrow=open;endSize=8;strokeColor=#ff0000;rounded=0;exitX=0;exitY=0.5;exitDx=0;exitDy=0;entryX=0.5;entryY=0;entryDx=0;entryDy=0;" edge="1" parent="1" source="_MuIBgbVTPE8MTDFf6LB-85" target="_MuIBgbVTPE8MTDFf6LB-60">
          <mxGeometry x="-0.8232" y="-10" relative="1" as="geometry">
            <mxPoint x="140" y="700" as="targetPoint" />
            <mxPoint x="489" y="670" as="sourcePoint" />
            <mxPoint as="offset" />
          </mxGeometry>
        </mxCell>
        <mxCell id="_MuIBgbVTPE8MTDFf6LB-90" value="&lt;span style=&quot;font-size: 11px; background-color: rgb(255, 255, 255);&quot;&gt;Livre&lt;/span&gt;" style="text;whiteSpace=wrap;html=1;" vertex="1" parent="1">
          <mxGeometry x="450" y="680" width="50" height="40" as="geometry" />
        </mxCell>
      </root>
    </mxGraphModel>
  </diagram>
</mxfile>
